<?xml version="1.0" encoding="utf-8"?>
<!-- Generator: Adobe Illustrator 16.0.3, SVG Export Plug-In . SVG Version: 6.00 Build 0)  -->
<!DOCTYPE svg PUBLIC "-//W3C//DTD SVG 1.1//EN" "http://www.w3.org/Graphics/SVG/1.1/DTD/svg11.dtd">
<svg xmlns:xlink="http://www.w3.org/1999/xlink" version="1.1" id="Слой_1" xmlns="http://www.w3.org/2000/svg" x="0px"
     y="0px"
     width="446px" height="466px" viewBox="0 0 446 466" enable-background="new 0 0 446 466" xml:space="preserve">
<path fill="#FFFFCC" d="M189.622,45.752c-3.489,0.616-6.815-1.717-7.431-5.211c-0.615-3.495,1.715-6.827,5.203-7.443
	c3.489-0.616,6.816,1.717,7.431,5.211C195.44,41.804,193.11,45.136,189.622,45.752z M253.479,408.51
	c-3.487,0.616-6.814-1.717-7.43-5.212c-0.615-3.494,1.715-6.826,5.203-7.442s6.814,1.717,7.43,5.212
	C259.297,404.561,256.968,407.894,253.479,408.51z"/>
  <path fill="#FFFFCC" d="M281.132,53.771c-3.329-1.214-5.045-4.9-3.833-8.235c1.211-3.334,4.893-5.054,8.221-3.84
	c3.328,1.213,5.045,4.9,3.834,8.235C288.143,53.266,284.461,54.985,281.132,53.771z M155.357,399.911
	c-3.328-1.214-5.045-4.901-3.833-8.235c1.211-3.334,4.892-5.054,8.221-3.84s5.045,4.9,3.833,8.235
	C162.367,399.405,158.686,401.124,155.357,399.911z"/>
  <path fill="#FFFFCC" d="M372.548,129.255c-1.823-3.042-0.842-6.989,2.195-8.817c3.036-1.827,6.977-0.843,8.801,2.199
	c1.825,3.041,0.842,6.988-2.194,8.816C378.313,133.28,374.373,132.296,372.548,129.255z M57.333,318.971
	c-1.825-3.042-0.842-6.988,2.194-8.815c3.036-1.828,6.977-0.845,8.801,2.197c1.825,3.041,0.842,6.988-2.194,8.816
	C63.098,322.996,59.157,322.012,57.333,318.971z"/>
  <path fill="#FFFFCC" d="M395.198,189.937c-0.615-3.494,1.715-6.826,5.202-7.442c3.49-0.617,6.815,1.717,7.432,5.211
	c0.615,3.494-1.715,6.827-5.203,7.443C399.141,195.765,395.813,193.432,395.198,189.937z M33.044,253.9
	c-0.615-3.493,1.714-6.825,5.203-7.442c3.488-0.616,6.815,1.718,7.43,5.212c0.615,3.494-1.714,6.827-5.203,7.443
	C36.986,259.729,33.659,257.396,33.044,253.9z"/>
  <path fill="#FFFFCC" d="M41.63,155.614c1.212-3.334,4.892-5.054,8.221-3.84c3.329,1.214,5.045,4.9,3.833,8.235
	c-1.211,3.334-4.892,5.053-8.221,3.84C42.135,162.635,40.419,158.948,41.63,155.614z M387.193,281.598
	c1.212-3.334,4.893-5.053,8.222-3.84c3.329,1.215,5.045,4.901,3.833,8.235c-1.211,3.335-4.893,5.054-8.221,3.84
	C387.699,288.62,385.982,284.934,387.193,281.598z"/>
  <path fill="#FFFFCC" d="M98.125,74.794c2.713-2.281,6.759-1.926,9.037,0.792c2.277,2.718,1.923,6.771-0.791,9.052
	s-6.759,1.926-9.037-0.792C95.057,81.127,95.411,77.075,98.125,74.794z M334.504,356.97c2.713-2.28,6.76-1.927,9.036,0.792
	s1.923,6.771-0.791,9.051c-2.713,2.281-6.759,1.927-9.036-0.791C331.436,363.303,331.79,359.251,334.504,356.97z"/>
  <path fill="#FFFFCC" d="M224.895,68.36c-3.542,0-6.415-2.876-6.415-6.425s2.872-6.425,6.415-6.425c3.543,0,6.414,2.876,6.414,6.425
	S228.438,68.36,224.895,68.36z M224.895,436.714c-3.542,0-6.415-2.876-6.415-6.425c0-3.548,2.872-6.425,6.415-6.425
	c3.543,0,6.414,2.877,6.414,6.425C231.309,433.838,228.438,436.714,224.895,436.714z"/>
  <path fill="#FFFFCC" d="M321.544,97.037c-2.971-1.933-3.815-5.912-1.886-8.888c1.93-2.976,5.902-3.822,8.873-1.889
	s3.814,5.912,1.886,8.888C328.486,98.124,324.516,98.969,321.544,97.037z M121.258,405.964c-2.971-1.932-3.815-5.911-1.886-8.887
	c1.929-2.977,5.902-3.822,8.873-1.89c2.971,1.933,3.815,5.911,1.886,8.888C128.201,407.051,124.229,407.897,121.258,405.964z"/>
  <path fill="#FFFFCC" d="M61.786,344.279c-1.825-3.041-0.842-6.988,2.194-8.816c3.036-1.827,6.977-0.843,8.801,2.198
	c1.825,3.042,0.842,6.989-2.194,8.816S63.61,347.321,61.786,344.279z M377.001,154.563c-1.824-3.041-0.842-6.988,2.195-8.816
	c3.036-1.827,6.977-0.843,8.801,2.198c1.825,3.042,0.842,6.989-2.194,8.816C382.766,158.589,378.826,157.605,377.001,154.563z"/>
  <path fill="#FFFFCC" d="M401.674,261.605c0.309-3.535,3.42-6.15,6.949-5.842c3.529,0.31,6.139,3.426,5.831,6.961
	c-0.31,3.534-3.42,6.149-6.949,5.84C403.977,268.256,401.365,265.139,401.674,261.605z M35.333,229.5
	c0.309-3.534,3.42-6.149,6.949-5.84c3.529,0.309,6.14,3.425,5.831,6.96c-0.309,3.534-3.419,6.149-6.949,5.841
	C37.634,236.15,35.024,233.035,35.333,229.5z"/>
  <path fill="#FFFFCC" d="M378.574,334.989c1.771-3.073,5.693-4.126,8.762-2.353c3.068,1.774,4.119,5.703,2.348,8.776
	s-5.693,4.126-8.762,2.352C377.854,341.991,376.803,338.061,378.574,334.989z M60.101,150.812c1.771-3.073,5.694-4.126,8.762-2.352
	s4.119,5.703,2.348,8.776c-1.771,3.073-5.694,4.126-8.762,2.352S58.33,153.884,60.101,150.812z"/>
  <path fill="#FFFFCC" d="M285.585,413.145c3.329-1.214,7.011,0.506,8.222,3.841c1.211,3.334-0.506,7.021-3.834,8.233
	c-3.328,1.214-7.01-0.505-8.221-3.84C280.54,418.045,282.256,414.358,285.585,413.145z M159.81,67.005
	c3.329-1.213,7.01,0.505,8.221,3.84c1.212,3.334-0.504,7.021-3.833,8.235c-3.329,1.213-7.01-0.506-8.221-3.84
	C154.765,71.906,156.481,68.219,159.81,67.005z"/>
</svg>
