<?xml version="1.0" encoding="utf-8"?>
<!-- Generator: Adobe Illustrator 16.0.3, SVG Export Plug-In . SVG Version: 6.00 Build 0)  -->
<!DOCTYPE svg PUBLIC "-//W3C//DTD SVG 1.1//EN" "http://www.w3.org/Graphics/SVG/1.1/DTD/svg11.dtd">
<svg version="1.1" id="Слой_1" xmlns="http://www.w3.org/2000/svg" xmlns:xlink="http://www.w3.org/1999/xlink" x="0px" y="0px"
	 width="388px" height="412px" viewBox="0 0 388 412" enable-background="new 0 0 388 412" xml:space="preserve">
<path fill="#FFFFFF" d="M196.896,27.528c-3.542-0.062-6.463,2.764-6.524,6.312c-0.062,3.548,2.759,6.474,6.301,6.536
	s6.463-2.764,6.525-6.312C203.26,30.516,200.439,27.59,196.896,27.528z M190.479,395.826c-3.542-0.063-6.463,2.764-6.525,6.312
	c-0.062,3.547,2.759,6.476,6.301,6.536c3.542,0.062,6.463-2.764,6.524-6.312C196.842,398.814,194.021,395.888,190.479,395.826z"/>
<path fill="#FFFFFF" d="M101.324,51.396c-3.098,1.72-4.218,5.631-2.5,8.734c1.718,3.103,5.621,4.225,8.72,2.505
	c3.098-1.72,4.217-5.63,2.499-8.734C108.326,50.798,104.422,49.676,101.324,51.396z M279.607,373.566
	c-3.099,1.72-4.217,5.63-2.498,8.732c1.717,3.104,5.621,4.227,8.719,2.505c3.098-1.72,4.217-5.631,2.5-8.732
	C286.609,372.967,282.706,371.846,279.607,373.566z"/>
<path fill="#FFFFFF" d="M358.113,284.688c-1.327,3.291,0.26,7.035,3.545,8.364c3.283,1.329,7.021-0.26,8.349-3.55
	c1.328-3.29-0.259-7.035-3.544-8.363C363.179,279.809,359.439,281.398,358.113,284.688z M17.15,146.7
	c-1.327,3.29,0.26,7.035,3.544,8.364c3.284,1.329,7.022-0.26,8.35-3.55s-0.26-7.035-3.544-8.364
	C22.215,141.821,18.477,143.41,17.15,146.7z"/>
<path fill="#FFFFFF" d="M3.322,214.775c-0.062,3.547,2.759,6.473,6.301,6.535c3.542,0.062,6.463-2.765,6.525-6.313
	s-2.759-6.475-6.301-6.536S3.384,211.227,3.322,214.775z M371.007,221.203c-0.062,3.548,2.759,6.474,6.302,6.536
	c3.541,0.062,6.463-2.765,6.524-6.313c0.062-3.547-2.759-6.474-6.301-6.533C373.99,214.83,371.068,217.654,371.007,221.203z"/>
<path fill="#FFFFFF" d="M27.152,310.506c1.717,3.104,5.621,4.228,8.719,2.505c3.098-1.72,4.217-5.63,2.5-8.732
	c-1.718-3.104-5.622-4.227-8.72-2.505C26.554,303.492,25.434,307.403,27.152,310.506z M348.785,131.925
	c1.718,3.104,5.621,4.225,8.72,2.505c3.099-1.72,4.218-5.631,2.499-8.734c-1.717-3.104-5.621-4.225-8.719-2.505
	C348.188,124.911,347.068,128.821,348.785,131.925z"/>
<path fill="#FFFFFF" d="M284.973,65.738c3.036,1.827,6.978,0.843,8.801-2.199c1.824-3.042,0.844-6.989-2.192-8.816
	c-3.037-1.827-6.978-0.843-8.804,2.199C280.954,59.963,281.936,63.911,284.973,65.738z M95.572,381.479
	c3.036,1.827,6.977,0.845,8.801-2.197c1.825-3.041,0.842-6.988-2.194-8.816c-3.036-1.827-6.977-0.843-8.801,2.199
	C91.553,375.704,92.536,379.652,95.572,381.479z"/>
<path fill="#FFFFFF" d="M164.26,4.151c-3.499,0.555-5.886,3.846-5.332,7.351c0.554,3.504,3.84,5.896,7.338,5.34
	c3.499-0.555,5.886-3.846,5.332-7.351C171.044,5.987,167.758,3.596,164.26,4.151z M221.787,367.969
	c-3.499,0.558-5.887,3.849-5.332,7.353c0.554,3.505,3.84,5.896,7.339,5.341s5.886-3.846,5.332-7.353
	C228.57,369.805,225.286,367.414,221.787,367.969z"/>
<path fill="#FFFFFF" d="M66.7,50.761c-2.633,2.374-2.845,6.438-0.475,9.073c2.37,2.637,6.426,2.85,9.058,0.476
	c2.633-2.374,2.845-6.437,0.475-9.073C73.388,48.6,69.333,48.387,66.7,50.761z M312.768,324.501
	c-2.634,2.375-2.846,6.438-0.476,9.074c2.371,2.637,6.426,2.85,9.06,0.475c2.631-2.374,2.846-6.436,0.475-9.073
	C319.455,322.34,315.398,322.127,312.768,324.501z"/>
<path fill="#FFFFFF" d="M17.595,121.005c-1.327,3.29,0.26,7.034,3.544,8.364c3.284,1.329,7.022-0.261,8.35-3.55
	c1.327-3.29-0.26-7.035-3.544-8.364C22.661,116.126,18.922,117.715,17.595,121.005z M358.559,258.993
	c-1.326,3.29,0.26,7.034,3.545,8.362c3.283,1.33,7.022-0.26,8.351-3.549c1.327-3.291-0.261-7.035-3.545-8.363
	C363.624,254.113,359.886,255.703,358.559,258.993z"/>
<path fill="#FFFFFF" d="M366.21,149.404c0.856,3.443,4.338,5.538,7.774,4.679c3.438-0.858,5.528-4.345,4.673-7.788
	c-0.857-3.443-4.339-5.538-7.775-4.68C367.445,142.474,365.354,145.961,366.21,149.404z M9.393,238.518
	c0.857,3.441,4.338,5.537,7.775,4.678c3.437-0.856,5.529-4.344,4.672-7.786c-0.857-3.443-4.338-5.538-7.775-4.681
	C10.628,231.587,8.536,235.074,9.393,238.518z"/>
<path fill="#FFFFFF" d="M46.146,312.355c2.229,2.758,6.268,3.183,9.021,0.948c2.753-2.231,3.177-6.277,0.948-9.036
	c-2.229-2.758-6.268-3.183-9.021-0.948C44.341,305.552,43.917,309.598,46.146,312.355z M331.936,80.543
	c2.229,2.757,6.269,3.183,9.021,0.95c2.753-2.233,3.177-6.279,0.948-9.037c-2.23-2.757-6.27-3.183-9.021-0.95
	C330.132,73.739,329.705,77.785,331.936,80.543z"/>
<path fill="#993333" d="M227.884,17.919c3.478,0.677,6.845-1.598,7.521-5.081c0.677-3.483-1.596-6.856-5.072-7.533
	c-3.479-0.677-6.846,1.598-7.521,5.081C222.135,13.87,224.406,17.242,227.884,17.919z M157.715,379.506
	c3.478,0.677,6.845-1.598,7.521-5.081c0.675-3.481-1.596-6.854-5.073-7.533c-3.477-0.677-6.844,1.6-7.52,5.081
	C151.967,375.456,154.238,378.829,157.715,379.506z"/>
</svg>
