<?xml version="1.0" encoding="utf-8"?>
<!-- Generator: Adobe Illustrator 16.0.3, SVG Export Plug-In . SVG Version: 6.00 Build 0)  -->
<!DOCTYPE svg PUBLIC "-//W3C//DTD SVG 1.1//EN" "http://www.w3.org/Graphics/SVG/1.1/DTD/svg11.dtd">
<svg xmlns:xlink="http://www.w3.org/1999/xlink" version="1.1" id="Слой_1" xmlns="http://www.w3.org/2000/svg" x="0px"
     y="0px"
     width="535px" height="545px" viewBox="0 0 535 545" enable-background="new 0 0 535 545" xml:space="preserve">
<path fill="#EEEEEE" d="M175.885,119.412c-3.036,1.828-4.019,5.775-2.194,8.816c1.824,3.042,5.765,4.026,8.801,2.198
	c3.036-1.827,4.019-5.774,2.195-8.816C182.862,118.569,178.922,117.585,175.885,119.412z M365.286,435.153
	c-3.037,1.827-4.019,5.774-2.195,8.815c1.825,3.042,5.765,4.026,8.802,2.198c3.036-1.827,4.02-5.774,2.194-8.816
	C372.264,434.31,368.322,433.325,365.286,435.153z"/>
  <path fill="#EEEEEE" d="M107.463,190.384c-1.717,3.104-0.598,7.014,2.5,8.734c3.098,1.72,7.002,0.599,8.72-2.504
	c1.717-3.104,0.598-7.014-2.501-8.734C113.084,186.159,109.18,187.281,107.463,190.384z M429.096,368.966
	c-1.717,3.104-0.598,7.013,2.501,8.734c3.099,1.72,7.002,0.599,8.72-2.505s0.598-7.015-2.5-8.734
	C434.718,364.741,430.813,365.862,429.096,368.966z"/>
  <path fill="#EEEEEE" d="M448.652,251.923c0.614,3.495,3.941,5.828,7.431,5.212c3.488-0.616,5.818-3.949,5.203-7.443
	c-0.615-3.494-3.942-5.828-7.432-5.212C450.367,245.097,448.037,248.429,448.652,251.923z M86.498,315.887
	c0.615,3.495,3.942,5.828,7.431,5.212c3.489-0.615,5.818-3.948,5.203-7.442c-0.615-3.494-3.942-5.828-7.431-5.212
	C88.212,309.061,85.883,312.393,86.498,315.887z"/>
  <path fill="#EEEEEE" d="M425.999,191.24c1.825,3.042,5.765,4.026,8.801,2.199c3.037-1.828,4.02-5.775,2.195-8.817
	c-1.825-3.041-5.766-4.025-8.802-2.198C425.157,184.252,424.175,188.199,425.999,191.24z M110.784,380.957
	c1.824,3.041,5.765,4.025,8.801,2.198c3.036-1.828,4.019-5.775,2.194-8.816c-1.824-3.042-5.765-4.026-8.801-2.198
	C109.942,373.968,108.959,377.915,110.784,380.957z"/>
  <path fill="#EEEEEE" d="M359.922,127.324c3.098,1.72,7.002,0.599,8.719-2.504c1.719-3.104,0.599-7.014-2.5-8.734
	c-3.098-1.721-7.002-0.599-8.719,2.504C355.704,121.693,356.824,125.604,359.922,127.324z M181.638,449.494
	c3.098,1.72,7.002,0.599,8.719-2.505c1.717-3.104,0.598-7.015-2.5-8.734s-7.002-0.599-8.72,2.505
	C177.42,443.863,178.539,447.773,181.638,449.494z"/>
  <path fill="#EEEEEE" d="M277.211,473.362c3.542-0.063,6.363-2.988,6.301-6.536c-0.061-3.547-2.982-6.373-6.525-6.312
	c-3.541,0.063-6.362,2.988-6.301,6.536C270.748,470.598,273.669,473.424,277.211,473.362z M270.793,105.065
	c3.542-0.062,6.363-2.989,6.301-6.536c-0.061-3.548-2.982-6.374-6.525-6.312c-3.541,0.062-6.362,2.988-6.3,6.536
	S267.251,105.126,270.793,105.065z"/>
  <path fill="#EEEEEE" d="M135.839,116.912c-2.674,2.328-2.957,6.386-0.633,9.064c2.324,2.678,6.375,2.962,9.049,0.634
	c2.673-2.328,2.957-6.386,0.633-9.064C142.564,114.868,138.512,114.584,135.839,116.912z M377.1,394.912
	c-2.675,2.328-2.957,6.386-0.634,9.063c2.324,2.679,6.375,2.962,9.05,0.635c2.672-2.328,2.955-6.387,0.631-9.064
	C383.823,392.868,379.771,392.584,377.1,394.912z"/>
  <path fill="#EEEEEE" d="M431.26,309.757c-0.976,3.41,0.993,6.968,4.398,7.946c3.405,0.978,6.957-0.994,7.933-4.405
	c0.978-3.411-0.992-6.969-4.396-7.947C435.789,304.373,432.237,306.346,431.26,309.757z M77.765,208.224
	c-0.977,3.411,0.992,6.969,4.397,7.947s6.957-0.994,7.934-4.405c0.977-3.411-0.993-6.969-4.397-7.947
	C82.293,202.841,78.742,204.814,77.765,208.224z"/>
  <path fill="#EEEEEE" d="M435.438,229.895c0.614,3.494,3.94,5.827,7.43,5.211c3.489-0.616,5.818-3.948,5.203-7.443
	c-0.615-3.494-3.942-5.827-7.432-5.211C437.152,223.068,434.822,226.4,435.438,229.895z M73.283,293.859
	c0.615,3.494,3.942,5.826,7.431,5.211c3.488-0.616,5.818-3.948,5.203-7.443c-0.615-3.494-3.942-5.827-7.43-5.211
	C74.998,287.032,72.668,290.364,73.283,293.859z"/>
  <path fill="#EEEEEE" d="M383.949,132.897c2.548,2.465,6.609,2.394,9.068-0.159c2.461-2.552,2.391-6.619-0.158-9.084
	c-2.547-2.465-6.608-2.394-9.069,0.158C381.33,126.365,381.4,130.432,383.949,132.897z M128.494,397.869
	c2.549,2.464,6.609,2.393,9.07-0.159s2.39-6.62-0.158-9.085c-2.549-2.464-6.609-2.393-9.07,0.159S125.946,395.404,128.494,397.869z"
  />
  <path fill="#EEEEEE" d="M318.45,92.693c3.35,1.155,7-0.628,8.153-3.983c1.152-3.355-0.627-7.011-3.977-8.166
	c-3.35-1.155-6.999,0.628-8.152,3.983S315.102,91.538,318.45,92.693z M198.726,440.979c3.349,1.155,6.999-0.628,8.152-3.982
	c1.154-3.356-0.627-7.012-3.976-8.167s-6.999,0.628-8.153,3.983C193.596,436.167,195.376,439.824,198.726,440.979z"/>
  <path fill="#66CC99" d="M197.081,94.815c3.307-1.272,4.959-4.988,3.69-8.301c-1.27-3.313-4.98-4.967-8.287-3.695
	c-3.307,1.271-4.959,4.988-3.689,8.3C190.064,94.432,193.774,96.087,197.081,94.815z M328.868,438.703
	c3.307-1.271,4.959-4.988,3.688-8.3c-1.269-3.313-4.979-4.968-8.285-3.696c-3.308,1.271-4.959,4.988-3.69,8.301
	C321.852,438.32,325.561,439.975,328.868,438.703z"/>
</svg>
